<svg width="512" height="512" viewBox="0 0 512 512" fill="none" xmlns="http://www.w3.org/2000/svg">
<g clip-path="url(#clip0_31_2)">
<path d="M511 512H-1V0H88.6396V313.44C88.6397 366.184 103.677 408.287 133.75 439.748C163.823 471.209 203.15 486.94 251.73 486.94C302.624 486.94 344.726 471.903 378.038 441.83C411.813 411.294 428.7 368.498 428.7 313.44C428.7 261.159 412.507 219.287 380.12 187.826C348.196 155.902 307.713 139.94 258.67 139.94C229.059 139.94 201.531 146.88 176.084 160.76V223.22C197.367 206.564 222.583 198.236 251.73 198.236C285.968 198.236 313.496 208.646 334.316 229.466C355.599 249.823 366.24 277.815 366.24 313.44C366.24 350.916 356.524 379.602 337.092 399.496C317.66 418.928 290.825 428.644 256.588 428.644C223.739 428.644 197.83 418.696 178.86 398.802C160.354 378.445 151.1 349.991 151.1 313.44V0H511V512ZM151.1 0H88.6396V-5.7998H151.1V0Z" fill="#42CE9F"/>
</g>
<defs>
<clipPath id="clip0_31_2">
<rect width="512" height="512" fill="white"/>
</clipPath>
</defs>
</svg>
